<svg xmlns="http://www.w3.org/2000/svg" width="48" height="48" viewBox="0 0 48 48" role="img" aria-label="Crab Avatar">
  <rect width="48" height="48" rx="6" fill="#1f2937"/>
  <g fill="#f97316">
    <path d="M10,26 Q24,42 38,26 Q38,18 24,18 Q10,18 10,26 Z" />
    <path d="M8,18 Q4,10 14,14 Q16,20 12,24 Z" />
    <path d="M40,18 Q44,10 34,14 Q32,20 36,24 Z" />
  </g>
  <g stroke="#f97316" stroke-width="2" stroke-linecap="round">
    <path d="M14 22 L 10 18" />
    <path d="M34 22 L 38 18" />
    <line x1="20" y1="20" x2="20" y2="14" />
    <line x1="28" y1="20" x2="28" y2="14" />
  </g>
  <g fill="#f97316">
    <circle cx="20" cy="14" r="3" />
    <circle cx="28" cy="14" r="3" />
  </g>
  <g fill="#111827">
    <circle cx="20" cy="14" r="1" />
    <circle cx="28" cy="14" r="1" />
  </g>
</svg>
